<svg width="25" height="24" viewBox="0 0 25 24" fill="none" xmlns="http://www.w3.org/2000/svg">
<path d="M11.6033 0.816988C11.9701 0.0737417 13.0299 0.0737404 13.3967 0.816986L16.3818 6.86544C16.5275 7.16058 16.8091 7.36515 17.1348 7.41248L23.8096 8.38239C24.6298 8.50158 24.9574 9.50955 24.3638 10.0881L19.5339 14.7962C19.2982 15.0259 19.1906 15.3569 19.2463 15.6813L20.3865 22.3292C20.5266 23.1461 19.6691 23.769 18.9355 23.3834L12.9653 20.2446C12.674 20.0915 12.326 20.0915 12.0347 20.2446L6.06448 23.3834C5.33085 23.769 4.47342 23.1461 4.61353 22.3292L5.75373 15.6813C5.80937 15.3569 5.70182 15.0259 5.46614 14.7962L0.636159 10.0881C0.042642 9.50955 0.370151 8.50158 1.19037 8.38239L7.86524 7.41248C8.19095 7.36515 8.47251 7.16058 8.61817 6.86544L11.6033 0.816988Z" fill="#F9DB5F"/>
</svg>
